<svg version="1.1" id="Layer_1" xmlns="http://www.w3.org/2000/svg" xmlns:xlink="http://www.w3.org/1999/xlink" x="0px" y="0px"
	 width="100%" viewBox="0 0 242 235" enable-background="new 0 0 242 235" xml:space="preserve">
<path fill="#000000" opacity="1.000000" stroke="none" 
	d="
M129.756561,1.390853 
	C166.281830,1.000000 202.564117,1.082582 238.844818,0.879114 
	C242.700546,0.857490 243.082779,1.980756 243.077255,5.333562 
	C242.972473,68.909805 243.000000,132.486267 243.000000,196.531342 
	C241.086182,198.393997 239.446213,197.115082 237.935120,196.280457 
	C216.252731,184.304749 194.634537,172.213013 172.940186,160.258606 
	C172.058929,159.773010 171.295715,159.129791 170.620117,157.911713 
	C170.259796,156.577423 170.541061,155.658554 171.058258,154.438477 
	C171.769318,153.154190 172.507767,152.299103 173.185181,151.016556 
	C173.961578,149.592133 174.540054,148.437103 174.988083,146.869354 
	C175.418472,145.503372 175.743256,144.448517 176.003754,143.024567 
	C176.414719,141.354218 176.774826,140.021637 177.118896,138.322296 
	C177.515106,136.834641 177.813889,135.686325 178.111633,134.162613 
	C178.595322,132.375763 178.722214,130.901138 178.930313,129.052979 
	C179.441895,126.657227 179.708237,124.618668 179.638458,122.149734 
	C179.562988,120.433716 179.611221,119.111320 179.581909,117.401070 
	C179.620514,112.816177 177.488113,111.227043 173.383804,111.351677 
	C167.634491,111.526276 161.874741,111.364777 156.120224,111.414978 
	C154.619141,111.428078 152.601959,110.773529 152.356445,113.745468 
	C152.416962,115.759430 152.381332,117.381279 152.100586,119.402420 
	C151.280350,122.736511 151.372513,125.726601 151.376190,129.114807 
	C151.354675,130.320053 151.365204,131.121567 151.326874,132.317688 
	C151.281708,133.494827 151.185303,134.269699 150.983246,135.415222 
	C150.613632,136.993698 150.318420,138.198212 150.315491,139.821381 
	C150.312576,141.430466 150.275925,142.667953 150.225433,144.275772 
	C150.114410,145.624146 149.862900,146.570099 149.545319,147.867874 
	C149.384659,148.921616 149.266998,149.621704 149.162994,150.678162 
	C148.977432,152.186279 148.617203,153.295990 148.278839,154.764923 
	C148.011902,155.997101 147.729782,156.868439 147.427353,158.087708 
	C147.229202,159.095261 147.064224,159.760071 146.815903,160.758575 
	C146.291824,162.391907 145.801346,163.674225 145.319580,165.322800 
	C143.933578,170.421448 141.287155,174.627289 139.178604,179.621155 
	C144.885681,179.075470 148.603867,174.216309 154.401001,174.536774 
	C165.329025,182.010300 176.872253,187.648773 188.026138,193.957443 
	C189.331528,194.695786 190.648575,195.425720 191.879135,196.277832 
	C193.191238,197.186401 195.400162,197.908524 194.743729,199.825714 
	C194.170990,201.498505 191.969131,201.429688 190.323059,201.441666 
	C171.827042,201.576065 153.330719,201.553726 134.834381,201.469360 
	C131.158478,201.452591 128.659576,200.088913 128.547989,196.037613 
	C128.453094,192.591736 126.545799,191.394272 123.363541,191.530563 
	C122.034050,191.587509 120.696220,191.578064 119.365623,191.536926 
	C116.394363,191.445053 114.869865,192.586227 114.471863,195.786209 
	C113.714241,201.877502 112.999443,202.434113 106.918709,202.485992 
	C94.421486,202.592636 81.916878,202.769302 69.426888,202.460999 
	C51.922222,202.028900 34.475880,203.592361 16.988138,203.565750 
	C12.063515,203.558258 11.357207,204.403976 11.973083,209.170639 
	C12.445281,212.825256 12.650900,216.481598 12.496408,220.139877 
	C12.336353,223.929871 13.843483,225.477005 17.730314,225.546646 
	C23.095991,225.642761 28.333387,224.462021 33.675037,224.467529 
	C58.004173,224.492630 82.333412,224.450165 106.662514,224.495270 
	C115.225014,224.511139 116.934433,226.919861 114.273132,235.634842 
	C77.534660,236.000000 41.069248,235.972076 4.604105,236.057358 
	C1.922123,236.063629 0.889509,235.895050 0.895355,232.610428 
	C1.030793,156.516327 1.035951,80.421852 0.883850,4.327810 
	C0.876928,0.864813 2.151706,0.955392 4.665842,0.959512 
	C40.798046,1.018730 76.930382,1.000000 113.531342,1.000000 
	C116.623871,6.223931 115.296791,11.716989 115.003075,17.114502 
	C114.899490,19.018213 113.324722,19.869076 111.540802,20.166258 
	C109.395134,20.523706 107.226669,20.425451 105.065819,20.425924 
	C74.621010,20.432583 44.176201,20.422899 13.731402,20.435131 
	C6.563540,20.438011 6.459889,20.563770 6.431977,27.637114 
	C6.420817,30.465277 6.849671,33.370392 6.347507,36.106693 
	C5.060782,43.118103 8.440283,46.854744 14.050591,50.496460 
	C31.905722,62.086430 49.737717,73.730484 67.424316,86.306030 
	C67.856926,86.832497 68.006493,87.057137 68.292786,87.655579 
	C68.539101,89.947472 67.065018,91.193359 66.261688,93.103027 
	C65.736343,94.223656 65.291222,94.997826 64.986359,96.159500 
	C65.152077,97.918129 66.348640,97.632072 67.227356,97.641991 
	C72.981361,97.707008 78.736160,97.694534 84.490639,97.658752 
	C86.387444,97.646957 88.148903,97.376808 88.879700,94.839600 
	C89.251701,93.620438 89.534279,92.735176 89.737076,91.466599 
	C89.949463,90.191231 90.217384,89.292305 90.586784,88.060959 
	C90.960938,86.855598 91.307045,86.006615 91.617386,84.788376 
	C91.935715,83.339676 92.243271,82.240860 92.665222,80.815582 
	C93.112114,79.385651 93.577248,78.330612 94.113739,76.932831 
	C95.563927,73.013786 97.377327,69.648338 99.784294,65.250320 
	C96.124924,66.698586 93.274971,67.640869 90.615295,69.142624 
	C88.870407,70.127853 87.148911,71.193703 84.612289,70.459366 
	C72.821983,63.432686 61.962296,55.704773 50.871052,48.328861 
	C49.511627,47.424816 47.651966,46.294235 48.096226,44.549408 
	C48.636745,42.426479 51.000225,42.578777 52.763725,42.564003 
	C71.583549,42.406345 90.404747,42.363167 109.223763,42.574581 
	C114.121277,42.629601 114.968384,43.765381 115.496384,49.011173 
	C116.027397,54.286949 116.209785,54.437057 122.124725,54.466694 
	C128.585129,54.499058 128.923431,54.256783 129.491837,49.190639 
	C130.157623,43.256565 130.922363,42.514511 137.607559,42.499172 
	C168.087204,42.429234 198.567017,42.477085 229.046768,42.468353 
	C238.460190,42.465656 238.503632,42.463379 238.458557,33.284447 
	C238.390610,19.443834 239.782715,20.557018 225.917404,20.541037 
	C197.436356,20.508209 168.955231,20.532423 140.474136,20.529404 
	C138.642349,20.529209 136.811508,20.512712 134.979721,20.435486 
	C131.621017,20.293880 129.626053,18.726282 129.594315,15.234192 
	C129.553558,10.750338 129.062790,6.268231 129.756561,1.390853 
z"/>
<path fill="#FFFFFF" opacity="1.000000" stroke="none" 
	d="
M68.189659,87.964745 
	C48.052555,74.704391 28.303827,61.315994 8.368729,48.211102 
	C5.598754,46.390179 4.447871,45.115776 4.827802,41.542900 
	C5.458663,35.610291 5.233559,29.549282 4.913133,23.566772 
	C4.718057,19.924589 5.598991,18.875198 9.450440,18.896299 
	C42.447685,19.077061 75.446869,18.911699 108.443970,19.105114 
	C112.862793,19.131014 114.458710,18.205544 114.140221,13.534127 
	C113.876488,9.665918 113.131538,5.612947 114.346832,1.382573 
	C119.022095,1.000000 124.044189,1.000000 129.533142,1.000000 
	C131.437988,5.493094 131.208664,10.143112 130.915894,14.715426 
	C130.692947,18.197296 131.675949,19.106291 135.224655,19.089916 
	C168.189072,18.937822 201.154938,19.081223 234.119095,18.904356 
	C238.590851,18.880363 240.525299,19.819990 240.093246,24.668812 
	C239.666428,29.459007 239.640427,34.351860 240.104752,39.135010 
	C240.538101,43.599239 238.742889,44.109165 234.851990,44.090469 
	C201.887604,43.932087 168.921600,44.091064 135.957733,43.887444 
	C131.726746,43.861305 130.293182,44.961716 130.961700,49.049942 
	C131.200333,50.509277 130.888138,52.050838 131.026169,53.536396 
	C131.213196,55.549492 130.354233,56.192802 128.453323,56.022152 
	C127.132072,55.903538 125.791054,56.022934 124.459702,55.995434 
	C121.155296,55.927177 117.063965,56.988762 114.772354,55.423882 
	C112.553848,53.908909 114.023453,49.551620 114.079094,46.471218 
	C114.135376,43.355301 112.171196,44.009922 110.464821,44.008808 
	C89.829659,43.995319 69.194489,44.000069 47.298935,44.000069 
	C60.578716,53.032207 72.960823,61.453796 85.666595,70.018890 
	C86.063675,73.569237 82.639244,73.987839 80.779190,76.166397 
	C79.273857,77.172348 78.005165,77.947983 76.774940,79.291809 
	C75.644241,80.410446 74.703941,81.270233 73.651604,82.473518 
	C71.777496,84.433304 70.856186,86.849174 68.189659,87.964745 
z"/>
<path fill="#FFFFFF" opacity="1.000000" stroke="none" 
	d="
M114.467606,236.000000 
	C114.000000,225.999985 114.000000,226.000000 104.020798,226.000000 
	C81.549011,226.000000 59.076321,226.113174 36.605942,225.934998 
	C29.322296,225.877243 22.181774,227.557938 14.869120,227.102631 
	C12.058970,226.927658 10.734411,226.700516 10.909865,223.367889 
	C11.212300,217.623337 11.214137,211.845367 10.031161,206.135132 
	C9.422851,203.198776 10.332801,202.009460 13.844760,201.886215 
	C45.221119,200.784988 76.605507,200.945755 107.987411,201.107193 
	C112.112587,201.128418 113.822128,200.187469 113.000984,196.014725 
	C112.026962,191.065094 113.935440,189.019913 118.985229,189.968979 
	C120.110687,190.180496 121.309807,190.000000 122.475014,190.000000 
	C129.679184,190.000000 129.898849,190.000015 129.898254,196.965927 
	C129.897995,199.992477 131.243637,200.032471 133.467255,200.027359 
	C153.774216,199.980652 174.081329,199.999908 195.044556,199.999908 
	C181.303619,190.848755 166.021469,185.368713 153.307770,174.979950 
	C151.808807,172.690567 153.699081,171.951233 154.877274,171.082489 
	C156.960800,169.546249 158.943573,167.911133 161.062241,165.905045 
	C162.958496,164.590302 164.066238,163.034134 165.206009,161.085815 
	C165.990723,159.921402 166.642410,159.057465 167.503433,157.935501 
	C168.455154,157.113174 169.274811,156.788513 170.526459,156.906265 
	C173.453293,160.595490 177.825333,161.521759 181.352036,163.526184 
	C201.487198,174.970108 221.917160,185.895294 242.623474,196.998352 
	C243.000000,205.687561 243.000000,214.375137 243.000000,223.531342 
	C241.066528,225.699860 238.680542,225.561188 236.366302,225.551193 
	C204.278870,225.412628 172.212982,227.295303 140.119583,226.575607 
	C138.956009,226.549500 137.788483,226.636185 136.627747,226.588989 
	C133.073090,226.444427 131.357117,228.028183 131.624832,231.660004 
	C131.710037,232.816132 131.683609,233.989670 131.189148,235.565201 
	C125.645073,236.000000 120.290138,236.000000 114.467606,236.000000 
z"/>
<path fill="#000000" opacity="1.000000" stroke="none" 
	d="
M131.468658,236.000000 
	C129.171021,233.110901 130.108719,229.901428 130.060516,226.843185 
	C130.009308,223.592743 132.721100,225.076187 134.139236,225.068756 
	C153.578690,224.966782 173.050217,225.682541 192.449265,224.791504 
	C209.001266,224.031265 225.526840,224.272339 242.531342,224.000000 
	C243.000000,227.985840 244.549240,233.472717 242.557312,235.528580 
	C240.627136,237.520721 235.056656,235.997742 231.084991,235.998138 
	C198.035767,236.001450 164.986542,236.000000 131.468658,236.000000 
z"/>
<path fill="#A146E8" opacity="1.000000" stroke="none" 
	d="
M136.027008,165.604889 
	C134.718002,173.021667 130.946075,178.559906 125.499626,182.695450 
	C120.201248,186.718552 112.185989,184.615372 108.181709,178.397293 
	C105.823952,174.736023 104.046974,170.700760 101.977127,166.468872 
	C102.085129,163.749603 104.007431,163.650864 105.550331,163.617508 
	C114.349365,163.427338 123.151993,163.461731 131.953110,163.529480 
	C133.452209,163.541031 134.943268,163.838181 136.027008,165.604889 
z"/>
<path fill="#541EE6" opacity="1.000000" stroke="none" 
	d="
M103.439835,77.397476 
	C104.569008,71.222145 107.772629,66.345413 112.630592,63.296318 
	C121.311066,57.848038 125.304382,61.583382 131.960953,70.163895 
	C133.322052,71.918373 134.006592,74.197731 135.061218,76.598328 
	C134.056595,78.709221 132.328094,79.227570 130.470352,79.273285 
	C123.068924,79.455421 115.664917,79.494781 108.261772,79.407509 
	C106.599289,79.387917 104.991638,78.998634 103.439835,77.397476 
z"/>
<path fill="#64B8E5" opacity="1.000000" stroke="none" 
	d="
M142.475266,123.674225 
	C142.882080,125.071266 142.929886,126.139145 142.906113,127.602707 
	C141.770844,129.407471 140.331146,130.108810 138.601959,130.351959 
	C125.193535,132.237503 111.721207,131.537170 98.262314,131.358215 
	C97.425301,131.347092 96.639214,131.024887 95.536041,130.302643 
	C95.117294,127.955154 95.069801,125.911980 95.094437,123.436081 
	C96.732323,121.368332 98.790970,121.617249 100.751335,121.588898 
	C111.825294,121.428741 122.900040,121.516777 133.974411,121.541023 
	C136.806259,121.547226 139.572601,121.976158 142.475266,123.674225 
z"/>
<path fill="#A146E8" opacity="1.000000" stroke="none" 
	d="
M93.453590,164.689560 
	C96.376854,170.564926 98.207993,176.466980 101.806915,181.696777 
	C91.403351,179.235931 82.803314,173.881378 75.081474,166.413483 
	C74.849976,164.268570 76.324669,163.812424 77.531303,163.793854 
	C82.716721,163.714066 87.950378,162.769684 93.453590,164.689560 
z"/>
<path fill="#6BAEE6" opacity="1.000000" stroke="none" 
	d="
M95.095764,130.370987 
	C105.751595,129.998932 116.343536,130.194519 126.922966,129.915314 
	C131.973892,129.782028 137.001038,128.747131 142.436752,128.059509 
	C142.881714,129.389145 142.928864,130.779922 142.904114,132.583008 
	C142.235748,133.594833 141.538254,134.086197 140.700302,134.166870 
	C126.909790,135.494446 113.148293,137.397369 99.233162,136.357574 
	C98.400757,136.295364 97.620758,136.021759 96.527802,135.308258 
	C95.787537,133.578308 95.407135,132.160980 95.095764,130.370987 
z"/>
<path fill="#A146E8" opacity="1.000000" stroke="none" 
	d="
M162.026001,165.614075 
	C159.943130,169.793701 155.767334,171.168732 152.993927,174.494354 
	C147.933334,177.519241 143.030396,180.508453 136.828674,182.064972 
	C139.396667,176.232162 141.703720,170.992050 144.087616,165.376129 
	C150.124451,162.679550 156.069855,162.428116 162.026001,165.614075 
z"/>
<path fill="#68ADE6" opacity="1.000000" stroke="none" 
	d="
M150.508774,130.287720 
	C150.167740,126.804665 150.171555,123.610542 150.530151,120.185425 
	C157.835663,116.899651 164.485214,119.650093 171.602554,121.233582 
	C174.558945,124.238144 174.196518,127.079460 170.749619,128.068390 
	C164.308578,129.916336 157.727798,131.710709 150.508774,130.287720 
z"/>
<path fill="#5F97E5" opacity="1.000000" stroke="none" 
	d="
M95.524292,114.303383 
	C94.595612,111.285469 94.999313,109.865189 98.474854,109.917770 
	C112.193153,110.125336 125.916496,109.986061 139.637833,110.025360 
	C141.089203,110.029510 143.238571,109.268166 142.902618,112.568077 
	C141.705093,114.162033 140.237961,114.440056 138.736206,114.424675 
	C125.884468,114.292946 113.075996,115.883743 100.215851,115.379387 
	C98.734016,115.321274 97.231201,115.396126 95.524292,114.303383 
z"/>
<path fill="#8086E6" opacity="1.000000" stroke="none" 
	d="
M141.480927,143.696213 
	C142.030899,145.201202 142.291107,146.415298 140.990768,147.669128 
	C139.080048,149.696777 136.842270,149.499863 134.700623,149.458099 
	C123.381882,149.237457 112.131554,151.120804 100.802422,150.535385 
	C100.135292,150.500931 99.481796,150.683350 98.402412,151.018402 
	C96.128578,149.616241 97.364693,147.576843 97.093719,145.407593 
	C100.262390,142.405258 103.872780,144.252441 107.215141,143.961655 
	C116.233383,143.177094 125.320023,143.491302 134.345963,142.556931 
	C136.615250,142.322021 138.974655,142.260056 141.480927,143.696213 
z"/>
<path fill="#70A3E6" opacity="1.000000" stroke="none" 
	d="
M96.094978,135.367432 
	C111.493347,135.973846 126.668762,133.516296 142.380524,132.996628 
	C142.809341,134.224686 142.786499,135.454056 142.437836,136.864044 
	C137.688751,139.775925 132.665833,138.227356 127.951752,138.905380 
	C120.239769,140.014618 112.404633,140.270233 104.596153,140.247391 
	C101.947868,140.239655 99.285355,139.821243 96.507599,138.295166 
	C96.118797,137.245255 96.070404,136.492233 96.094978,135.367432 
z"/>
<path fill="#6395E6" opacity="1.000000" stroke="none" 
	d="
M151.473312,114.341568 
	C150.965240,112.718941 150.761566,111.432610 150.535538,110.005096 
	C158.515411,110.005096 166.490738,110.340096 174.420563,109.883888 
	C179.462479,109.593826 181.156631,111.612335 180.907578,116.590118 
	C177.412537,119.664108 173.669327,117.825356 170.243607,117.354958 
	C164.087830,116.509689 157.591797,117.811523 151.473312,114.341568 
z"/>
<path fill="#5A67E6" opacity="1.000000" stroke="none" 
	d="
M140.459854,94.696381 
	C141.019653,96.285141 141.205322,97.566635 141.412903,98.999451 
	C127.525093,98.999451 113.722160,99.000366 99.919220,98.998108 
	C98.441124,98.997871 96.742905,99.277748 97.098671,96.437424 
	C100.676308,93.443451 104.945534,94.280380 108.775620,93.911682 
	C118.377975,92.987335 128.070541,93.465096 137.727448,93.637695 
	C138.568573,93.652718 139.351990,93.973358 140.459854,94.696381 
z"/>
<path fill="#65A1E6" opacity="1.000000" stroke="none" 
	d="
M151.098419,114.425629 
	C156.716812,115.846268 162.566147,114.954994 168.256393,115.775841 
	C172.087845,116.328537 176.010193,117.244202 180.405716,117.003067 
	C180.882874,118.396042 180.931488,119.787636 180.906403,121.591400 
	C178.266800,123.974510 175.548935,123.744537 172.382385,122.280960 
	C165.262512,121.412430 158.658127,119.497528 151.349304,119.967743 
	C150.932587,118.251610 150.980255,116.548805 151.098419,114.425629 
z"/>
<path fill="#584BE6" opacity="1.000000" stroke="none" 
	d="
M99.230988,90.293365 
	C99.010170,88.755287 99.134041,87.544380 99.572998,86.146652 
	C101.537033,84.584084 103.513618,84.514282 105.522072,84.514259 
	C116.099197,84.514114 126.676338,84.516037 137.677994,84.731522 
	C139.542847,85.733124 138.781219,87.119629 139.063599,88.589355 
	C138.251953,90.993591 136.424774,91.369225 134.578369,91.285828 
	C124.185524,90.816376 113.803917,91.772369 103.414742,91.460052 
	C102.080338,91.419945 100.771523,91.284088 99.230988,90.293365 
z"/>
<path fill="#759AE6" opacity="1.000000" stroke="none" 
	d="
M96.094666,138.389587 
	C111.222633,140.225906 126.151985,136.671036 141.639221,137.030914 
	C142.066788,137.785980 142.021530,138.527267 141.904999,139.633484 
	C139.693878,141.927658 136.895187,141.995392 134.361816,142.081924 
	C122.195221,142.497482 110.068703,144.238571 97.404678,143.199249 
	C95.196136,141.975861 96.320793,140.225800 96.094666,138.389587 
z"/>
<path fill="#7B8EE6" opacity="1.000000" stroke="none" 
	d="
M96.972458,143.426453 
	C97.584892,142.185440 98.534004,141.964050 99.558281,142.016434 
	C108.639877,142.480804 117.662834,141.127533 126.711411,141.116364 
	C131.530487,141.110397 136.171494,139.735321 141.399170,139.999115 
	C141.881348,141.067978 141.929016,142.137558 141.905014,143.603546 
	C129.797363,144.015045 117.808525,144.908157 105.813713,145.787552 
	C103.244827,145.975891 100.611580,145.286255 97.586548,145.001068 
	C97.108391,144.582062 97.051666,144.163101 96.972458,143.426453 
z"/>
<path fill="#541EE6" opacity="1.000000" stroke="none" 
	d="
M143.549866,77.314041 
	C140.830780,72.956245 139.760620,68.230957 136.313980,64.687241 
	C141.628677,63.847599 153.041412,69.580360 159.972839,76.649643 
	C154.824463,79.648308 149.380615,78.708588 143.549866,77.314041 
z"/>
<path fill="#541EE6" opacity="1.000000" stroke="none" 
	d="
M79.870834,76.311249 
	C81.079231,73.289742 84.205833,72.927124 85.862274,70.464752 
	C90.906883,67.787117 95.570267,64.771080 101.804817,63.733414 
	C99.935844,68.577362 96.532227,72.057472 95.421494,76.856842 
	C89.952293,79.269928 84.822746,80.184799 79.870834,76.311249 
z"/>
<path fill="#64B8E5" opacity="1.000000" stroke="none" 
	d="
M87.483513,121.707504 
	C87.881172,124.376755 87.929474,126.747437 87.906357,129.557312 
	C80.523880,133.032410 73.229141,131.445984 65.530754,129.686584 
	C63.241459,126.788734 64.636978,124.744560 66.974838,124.002655 
	C73.497917,121.932617 80.094154,119.734680 87.483513,121.707504 
z"/>
<path fill="#62B1E5" opacity="1.000000" stroke="none" 
	d="
M142.907272,123.631912 
	C127.285164,122.039703 111.664764,123.401299 95.624344,123.002274 
	C95.118988,122.251038 95.071419,121.498726 95.096100,120.374786 
	C98.001633,118.146492 101.277443,118.842682 104.296715,118.748245 
	C114.887680,118.416962 125.491547,118.592117 136.090454,118.640678 
	C138.263519,118.650635 140.406479,118.839508 142.503296,120.670990 
	C142.882446,121.755501 142.931351,122.507973 142.907272,123.631912 
z"/>
<path fill="#61ACE5" opacity="1.000000" stroke="none" 
	d="
M87.907272,121.610199 
	C81.516220,121.598122 75.466682,123.322998 69.355484,124.441338 
	C67.387474,124.801491 64.895973,125.185890 65.008179,128.611877 
	C63.223152,130.625015 61.076359,130.677780 58.514549,130.217239 
	C57.788063,127.932716 57.407383,125.865433 57.096725,123.401451 
	C58.612801,121.472260 60.601921,121.165543 62.496426,120.653160 
	C69.177254,118.846313 76.106552,118.397865 82.853958,116.945457 
	C84.311089,116.631798 85.802048,116.675552 87.500435,117.727226 
	C87.881676,119.074608 87.931679,120.144470 87.907272,121.610199 
z"/>
<path fill="#955DE8" opacity="1.000000" stroke="none" 
	d="
M100.576538,162.252258 
	C100.108788,161.254883 100.046066,160.515137 99.931427,159.406616 
	C102.466660,156.473877 105.928581,157.457428 108.905579,157.197754 
	C118.620995,156.350357 128.389999,155.838013 138.475800,157.667511 
	C139.131317,158.957291 138.936462,159.767075 137.973862,160.694672 
	C134.839752,163.432724 131.102646,162.799149 127.752098,163.011322 
	C118.839386,163.575714 109.867081,164.458420 100.576538,162.252258 
z"/>
<path fill="#6DA8E6" opacity="1.000000" stroke="none" 
	d="
M172.035217,122.359230 
	C174.651321,122.001266 177.303055,122.001312 180.393738,122.002472 
	C180.811386,124.114235 181.728439,126.319557 180.016418,128.638123 
	C179.479767,129.350388 179.169479,129.863220 178.717270,129.976410 
	C169.568741,132.266006 160.381958,134.293182 150.505768,133.281281 
	C150.118713,132.245621 150.069626,131.493713 150.092224,130.370285 
	C156.458298,129.991638 162.559204,128.466995 168.729202,127.531540 
	C171.168106,127.161751 173.962631,126.394058 172.035217,122.359230 
z"/>
<path fill="#7796E6" opacity="1.000000" stroke="none" 
	d="
M149.469757,140.320618 
	C149.189407,138.771042 149.211456,137.543594 149.559418,136.136856 
	C152.024628,134.211639 154.625702,134.730087 157.076599,134.461212 
	C162.374939,133.879944 167.653992,133.132217 172.948441,132.520737 
	C174.881104,132.297546 176.942398,131.674500 178.892715,133.651260 
	C178.994034,135.257233 178.876724,136.472183 178.437561,137.864777 
	C171.753357,141.482513 164.631073,140.449509 157.852005,141.354477 
	C155.232224,141.704208 152.282288,142.787094 149.469757,140.320618 
z"/>
<path fill="#857BE7" opacity="1.000000" stroke="none" 
	d="
M97.984886,151.344086 
	C98.254890,148.707291 100.092972,149.042465 101.729645,148.999817 
	C114.459183,148.668076 127.188622,148.332565 140.375641,147.997330 
	C140.880936,148.748886 140.928711,149.501358 140.905090,150.625610 
	C139.856491,151.654770 138.815659,152.307587 137.633896,152.298035 
	C125.335609,152.198761 113.090714,154.096771 100.775818,153.270935 
	C100.108459,153.226196 99.487778,152.951920 98.532410,152.315643 
	C98.167542,151.997833 98.017464,151.568939 97.984886,151.344086 
z"/>
<path fill="#7B8EE6" opacity="1.000000" stroke="none" 
	d="
M149.095093,140.410645 
	C153.536835,140.943390 157.883499,139.939835 162.219681,139.703293 
	C167.240234,139.429413 172.230667,138.603638 177.674942,138.029922 
	C177.712311,139.447556 178.580383,141.134613 177.000671,142.655243 
	C173.650909,145.522675 169.762161,144.339691 166.226318,144.871033 
	C160.839844,145.680466 155.368866,146.181488 149.527863,145.278030 
	C149.119202,143.603607 149.071014,142.213181 149.095093,140.410645 
z"/>
<path fill="#5A5EE5" opacity="1.000000" stroke="none" 
	d="
M140.898315,94.674454 
	C126.568871,95.048492 112.293320,94.646255 97.612274,96.002731 
	C97.450417,95.216270 97.735054,94.428535 98.093147,93.322281 
	C102.239395,90.120819 106.904266,91.806473 111.272270,91.444130 
	C120.522621,90.676788 129.812836,90.465836 139.459366,91.700150 
	C140.210175,92.784546 140.586426,93.564896 140.898315,94.674454 
z"/>
<path fill="#9B51E8" opacity="1.000000" stroke="none" 
	d="
M100.197739,162.335938 
	C112.437004,162.010483 124.708313,162.241516 137.386459,161.000916 
	C138.573257,162.856644 137.164581,164.198029 136.372467,165.933228 
	C135.505325,165.761703 134.957657,165.121277 134.413071,165.123901 
	C123.780449,165.174820 113.137749,164.458618 102.231064,165.789734 
	C100.280113,165.510117 101.584190,163.424469 100.197739,162.335938 
z"/>
<path fill="#6FA4E6" opacity="1.000000" stroke="none" 
	d="
M60.525543,137.315277 
	C59.787086,135.580627 59.405483,134.162674 59.096428,132.371857 
	C59.947811,131.250687 60.946068,130.979858 61.931095,131.165176 
	C69.645439,132.616455 77.451736,132.494431 85.245163,132.628525 
	C86.256287,132.645935 87.187263,133.031357 88.460403,133.754364 
	C88.890549,135.069275 88.933594,136.137543 88.904922,137.601410 
	C88.239403,138.592224 87.543419,139.121368 86.713120,139.154831 
	C78.054260,139.503647 69.342201,140.669937 60.525543,137.315277 
z"/>
<path fill="#759AE6" opacity="1.000000" stroke="none" 
	d="
M60.096245,137.371063 
	C69.381439,138.356674 78.658051,137.943283 88.375488,137.997925 
	C88.880775,139.066116 88.928337,140.135178 88.904633,141.600494 
	C88.360329,142.477722 87.819580,142.997543 87.172493,143.043518 
	C78.746437,143.642181 70.312874,144.416260 61.546928,142.307922 
	C60.786430,140.578979 60.405117,139.161270 60.096245,137.371063 
z"/>
<path fill="#609FE5" opacity="1.000000" stroke="none" 
	d="
M87.905182,117.608871 
	C77.725281,118.755211 67.875526,121.039932 57.569042,123.002037 
	C57.119469,121.935699 57.072201,120.866653 57.096031,119.401283 
	C66.762291,115.013191 76.822868,113.552834 87.485985,113.749580 
	C87.880119,115.074356 87.929405,116.143669 87.905182,117.608871 
z"/>
<path fill="#609FE5" opacity="1.000000" stroke="none" 
	d="
M95.097343,114.333206 
	C110.770760,114.626030 126.320656,112.727638 142.374390,113.002045 
	C142.879929,113.754921 142.928146,114.507011 142.904388,115.630554 
	C141.691010,117.183502 140.202438,117.351501 138.690201,117.359238 
	C125.394859,117.427246 112.099426,117.462585 98.804207,117.339836 
	C97.800720,117.330574 96.821266,117.134445 95.547104,116.319962 
	C95.121429,115.556053 95.074623,115.110115 95.097343,114.333206 
z"/>
<path fill="#68ADE6" opacity="1.000000" stroke="none" 
	d="
M88.818253,133.646423 
	C79.182175,133.924545 69.459679,134.681931 59.570221,132.010330 
	C58.826744,131.528961 58.484509,131.058899 58.155510,130.294434 
	C60.160343,129.531204 62.087967,128.676102 64.606438,128.999084 
	C72.279793,129.957321 79.591057,130.179489 87.377815,129.997742 
	C88.205566,131.079727 87.633667,132.435806 88.818253,133.646423 
z"/>
<path fill="#5840E6" opacity="1.000000" stroke="none" 
	d="
M138.058044,84.618828 
	C130.917038,87.012978 123.569885,85.686134 116.301575,85.962624 
	C111.154984,86.158386 105.994591,85.991051 100.364220,85.972809 
	C100.022102,85.068848 100.156113,84.177872 100.588249,83.122826 
	C102.090660,81.965248 103.507904,81.636444 105.028328,81.640984 
	C115.387863,81.671906 125.748405,81.228615 136.576782,81.805908 
	C138.183472,82.362022 137.933014,83.385147 138.058044,84.618828 
z"/>
<path fill="#7B8EE6" opacity="1.000000" stroke="none" 
	d="
M61.102016,142.349792 
	C70.084450,141.997406 79.001152,141.998108 88.375610,141.997772 
	C89.209312,143.094757 89.585258,144.192780 89.897064,145.643890 
	C89.359955,146.478134 88.819160,146.997833 88.171997,147.043808 
	C79.745407,147.642380 71.311371,148.415268 62.544155,146.309814 
	C61.788315,144.900513 61.412304,143.801697 61.102016,142.349792 
z"/>
<path fill="#70A3E6" opacity="1.000000" stroke="none" 
	d="
M179.446411,133.845612 
	C173.500244,132.592468 168.114807,134.888611 162.629868,135.294937 
	C158.701859,135.585922 154.766586,135.871506 150.353104,135.970245 
	C149.931198,135.214676 149.977066,134.471756 150.095367,133.363190 
	C159.868729,132.266586 169.443787,130.622086 179.429016,129.009827 
	C179.815887,130.548370 179.798691,132.098648 179.446411,133.845612 
z"/>
<path fill="#5F97E5" opacity="1.000000" stroke="none" 
	d="
M87.902557,113.580048 
	C77.883980,115.670700 67.937134,117.336357 57.578705,119.003494 
	C56.467094,117.652992 58.012676,116.881416 58.093987,115.359825 
	C64.243996,112.052254 70.977646,112.292381 77.406372,111.057388 
	C78.367470,110.872757 79.390182,111.036575 80.662262,110.386604 
	C83.347931,111.119156 87.821053,107.095146 87.902557,113.580048 
z"/>
<path fill="#8183E7" opacity="1.000000" stroke="none" 
	d="
M62.096634,146.335098 
	C71.082054,145.999207 79.999786,145.999100 89.375214,145.997986 
	C89.880508,147.066971 89.928101,148.136948 89.904579,149.603516 
	C89.024498,150.938873 87.920227,151.372070 86.761353,151.365891 
	C79.403893,151.326630 71.997360,152.579727 64.297356,150.316620 
	C62.809933,149.171127 62.402973,147.930069 62.096634,146.335098 
z"/>
<path fill="#5A67E6" opacity="1.000000" stroke="none" 
	d="
M173.703613,94.683670 
	C176.690552,97.818977 176.657669,99.206894 172.205414,99.059219 
	C165.590393,98.839798 158.962631,98.986824 152.340424,99.011024 
	C150.078369,99.019287 147.858856,99.070045 148.097748,95.416031 
	C149.001892,94.115646 150.076447,93.617310 151.246628,93.645821 
	C158.597290,93.824875 166.000412,92.557587 173.703613,94.683670 
z"/>
<path fill="#5A5EE5" opacity="1.000000" stroke="none" 
	d="
M89.784180,93.710373 
	C90.559830,97.878693 89.311256,99.425072 85.020798,99.127403 
	C78.315620,98.662209 71.551231,98.877541 64.818840,99.059975 
	C61.993233,99.136543 62.532200,97.926964 63.569962,96.131058 
	C72.255424,93.626152 80.703255,92.041656 89.784180,93.710373 
z"/>
<path fill="#9066E7" opacity="1.000000" stroke="none" 
	d="
M138.972794,157.693237 
	C126.149155,158.052567 113.453003,157.653732 100.341690,159.026505 
	C98.733902,158.617462 99.080498,157.612793 98.976944,156.443054 
	C98.835548,155.841965 98.711662,155.575333 98.867233,154.966385 
	C99.683838,154.367477 100.249802,154.229538 101.279503,154.247772 
	C110.266853,154.931519 118.825752,154.635117 127.776413,154.332489 
	C129.195602,153.927307 130.253265,153.856934 131.680450,153.731689 
	C132.778152,153.652298 133.505524,153.625168 134.558441,153.354767 
	C135.599548,153.123795 136.301926,153.089279 137.352539,153.230942 
	C138.371231,153.532089 138.925491,153.934540 139.602783,154.744476 
	C140.169846,155.970352 139.878784,156.750549 138.972794,157.693237 
z"/>
<path fill="#8777E7" opacity="1.000000" stroke="none" 
	d="
M138.271912,153.970367 
	C137.250000,153.999023 136.500000,153.999283 135.375000,153.999756 
	C134.400864,154.010040 133.862808,154.188583 133.197952,154.786957 
	C131.929230,154.994614 130.864273,154.994736 129.399963,154.994141 
	C119.968155,155.001022 110.935699,154.990448 101.451622,154.999329 
	C100.555656,155.000076 100.111313,155.000153 99.333710,155.000488 
	C98.860641,155.132614 98.720825,155.264481 98.372620,155.197159 
	C98.117668,154.245651 98.071114,153.493332 98.096054,152.369431 
	C112.110359,152.742523 125.981682,150.499405 140.376175,150.998077 
	C140.576889,151.483414 140.320053,151.969437 139.948395,152.726990 
	C139.513031,153.462524 139.092804,153.790237 138.271912,153.970367 
z"/>
<path fill="#8777E7" opacity="1.000000" stroke="none" 
	d="
M63.938225,150.379669 
	C72.229584,150.029526 80.573769,150.014771 89.375710,150.000061 
	C90.445831,151.015015 91.285622,151.950943 90.904083,153.642120 
	C89.723434,155.164490 88.271225,155.506653 86.772476,155.434311 
	C80.085991,155.111526 73.327843,156.455673 66.296959,154.314972 
	C65.254051,152.933411 64.622551,151.824219 63.938225,150.379669 
z"/>
<path fill="#5952E5" opacity="1.000000" stroke="none" 
	d="
M139.903564,91.664200 
	C126.226585,91.464661 112.662003,92.673027 98.621246,93.002586 
	C98.205917,92.103043 98.245232,91.202309 98.585419,90.133881 
	C108.636650,89.587799 118.394638,90.640015 128.168304,89.349159 
	C131.428772,88.918533 134.935913,90.807304 138.730377,89.115311 
	C140.253632,89.431297 139.930328,90.444443 139.903564,91.664200 
z"/>
<path fill="#61ACE5" opacity="1.000000" stroke="none" 
	d="
M142.905930,120.631569 
	C129.006027,119.134544 115.134155,119.911255 101.282173,120.501556 
	C99.399818,120.581764 97.767281,119.602097 95.561295,120.003235 
	C95.121414,119.557144 95.074493,119.111130 95.098007,118.334244 
	C95.677254,117.560043 96.261314,117.154663 96.923409,117.152237 
	C111.961609,117.097229 127.003273,116.547935 142.433807,117.715393 
	C142.880768,118.755669 142.929550,119.507889 142.905930,120.631569 
z"/>
<path fill="#8183E7" opacity="1.000000" stroke="none" 
	d="
M149.091919,145.313599 
	C158.074295,144.124130 166.958252,142.946625 176.383499,142.995667 
	C177.030441,144.197083 177.292297,145.412964 175.991562,146.669464 
	C175.578522,147.211914 175.334427,147.571350 175.052872,147.600327 
	C166.353317,148.495544 157.682007,150.183701 148.527771,148.310425 
	C148.451248,147.210556 148.733856,146.421875 149.091919,145.313599 
z"/>
<path fill="#5952E5" opacity="1.000000" stroke="none" 
	d="
M148.400391,93.199402 
	C146.041794,92.153526 147.809189,89.805725 146.225952,88.354897 
	C148.073761,86.199959 150.484024,86.488266 152.762955,86.512993 
	C157.888702,86.568588 163.020859,86.174446 168.595093,86.793991 
	C170.758972,87.418427 170.790588,89.297745 171.970093,90.656029 
	C170.982208,93.360779 168.734879,93.414146 166.614441,93.420753 
	C160.695404,93.439201 154.772507,93.702774 148.400391,93.199402 
z"/>
<path fill="#8777E7" opacity="1.000000" stroke="none" 
	d="
M148.095825,148.371063 
	C157.108215,148.265701 165.963654,146.283218 175.377045,146.997986 
	C176.484329,148.550949 174.791245,149.406708 174.412415,150.897827 
	C165.733353,153.167465 157.311188,153.038986 148.513245,151.299911 
	C148.118271,150.249283 148.070648,149.496078 148.095825,148.371063 
z"/>
<path fill="#60A5E5" opacity="1.000000" stroke="none" 
	d="
M142.903107,117.672455 
	C127.249229,118.002800 111.666481,118.002144 95.626091,118.002426 
	C95.121445,117.556999 95.074440,117.110641 95.097839,116.333130 
	C110.751167,116.001587 126.334106,116.001183 142.374725,116.001389 
	C142.879684,116.448486 142.926971,116.894966 142.903107,117.672455 
z"/>
<path fill="#5634E6" opacity="1.000000" stroke="none" 
	d="
M137.024292,81.586121 
	C135.650223,83.634300 133.698273,82.963287 131.973618,82.972504 
	C121.928970,83.026184 111.883842,82.990364 101.362625,82.971771 
	C101.023087,82.065277 101.159813,81.171799 101.595520,80.113251 
	C113.273659,79.425209 124.643883,78.221176 136.438614,79.751678 
	C136.887756,80.423569 136.944885,80.845139 137.024292,81.586121 
z"/>
<path fill="#5840E6" opacity="1.000000" stroke="none" 
	d="
M169.022675,86.564651 
	C165.382614,89.149345 161.354919,87.673576 157.504227,87.947166 
	C154.048859,88.192665 150.562347,87.999710 146.632721,88.000343 
	C145.818756,86.914780 146.314056,85.592827 145.216217,84.350426 
	C151.675919,81.121765 158.448792,82.783234 165.586105,82.856270 
	C167.298233,83.767426 168.624603,84.579285 169.022675,86.564651 
z"/>
<path fill="#8D6DE7" opacity="1.000000" stroke="none" 
	d="
M148.089264,151.353470 
	C156.573563,150.915512 164.981216,150.828537 173.747894,150.896164 
	C174.169098,152.233704 173.567078,153.079132 172.413635,153.919556 
	C165.519348,156.761230 158.431702,154.978394 151.672974,156.258942 
	C150.379608,156.503998 149.036942,156.259445 147.504303,155.285034 
	C146.483139,153.652863 148.024002,152.878006 148.089264,151.353470 
z"/>
<path fill="#5529E5" opacity="1.000000" stroke="none" 
	d="
M136.819733,79.692337 
	C127.216148,79.895195 117.611084,79.979767 108.029076,80.962433 
	C106.246872,81.145210 104.357018,81.294106 102.283638,80.117218 
	C102.223732,79.165787 102.552940,78.383400 103.023964,77.302399 
	C113.530891,78.604958 123.899910,78.584877 134.695984,77.020103 
	C135.682587,77.768570 136.245712,78.575615 136.819733,79.692337 
z"/>
<path fill="#584BE6" opacity="1.000000" stroke="none" 
	d="
M65.498947,93.315178 
	C65.656136,91.616127 66.124527,90.217773 67.590370,89.085060 
	C75.429184,85.499184 83.242340,86.020203 91.472595,87.690346 
	C91.549477,88.789894 91.266136,89.577469 90.908943,90.682549 
	C86.365608,93.627686 81.248398,92.493462 76.470642,93.227211 
	C73.064827,93.750267 69.420975,95.251472 65.498947,93.315178 
z"/>
<path fill="#5634E6" opacity="1.000000" stroke="none" 
	d="
M72.756210,82.361496 
	C73.768784,80.980644 74.575546,80.051605 75.669815,79.001755 
	C81.606384,80.371826 87.560661,78.484566 93.500473,80.718674 
	C93.546158,82.103973 93.259476,83.206581 92.902550,84.655807 
	C86.957329,87.779327 80.821739,86.379143 74.777725,86.020096 
	C73.148590,85.923332 72.137634,84.687881 72.756210,82.361496 
z"/>
<path fill="#9B51E8" opacity="1.000000" stroke="none" 
	d="
M162.405396,166.047363 
	C156.531876,163.670807 150.721588,165.623047 144.621521,164.999969 
	C144.537109,163.752823 144.909744,162.505325 145.583649,161.107666 
	C152.337357,158.464111 158.884598,159.091904 165.817352,160.706802 
	C165.781265,163.212341 164.269806,164.604202 162.405396,166.047363 
z"/>
<path fill="#5952E5" opacity="1.000000" stroke="none" 
	d="
M65.023346,93.301857 
	C73.460373,92.813866 81.585938,90.517212 90.385574,90.999893 
	C90.799301,91.901482 90.763512,92.802910 90.425385,93.869278 
	C81.591522,93.519981 73.302467,96.160492 64.339447,95.967407 
	C63.991440,95.074783 64.057465,94.177231 65.023346,93.301857 
z"/>
<path fill="#5840E6" opacity="1.000000" stroke="none" 
	d="
M72.661621,82.063339 
	C72.767723,84.683479 74.428268,85.067612 76.701805,85.026810 
	C81.772392,84.935806 86.845779,84.999863 92.375168,85.001579 
	C92.548759,85.790764 92.265221,86.579109 91.907242,87.684891 
	C84.136261,88.028687 76.425041,87.709808 68.333847,88.969101 
	C67.886246,88.956116 67.947762,88.477577 67.904083,88.240219 
	C69.360672,86.074242 70.860954,84.145622 72.661621,82.063339 
z"/>
<path fill="#9066E7" opacity="1.000000" stroke="none" 
	d="
M147.091629,155.317383 
	C155.176758,154.888702 163.135208,153.510864 171.642990,154.030258 
	C172.010162,154.932404 171.946945,155.839630 170.972046,156.720764 
	C170.116608,157.336411 169.391022,157.643784 168.367203,157.991547 
	C160.997711,158.224670 153.985321,160.689240 146.513916,158.289093 
	C146.454498,157.209702 146.735641,156.422729 147.091629,155.317383 
z"/>
<path fill="#5634E6" opacity="1.000000" stroke="none" 
	d="
M165.932968,82.608841 
	C161.698792,85.178566 157.029053,83.525047 152.527924,83.963249 
	C150.399323,84.170479 148.233932,83.999557 145.628174,84.000473 
	C145.107956,83.261993 145.044754,82.523003 144.934631,81.415009 
	C145.638428,79.236336 147.259323,78.664459 148.938141,78.664391 
	C153.385986,78.664200 157.912231,77.715797 162.679962,79.740280 
	C164.016220,80.745117 164.917923,81.536461 165.932968,82.608841 
z"/>
<path fill="#5E8BE5" opacity="1.000000" stroke="none" 
	d="
M80.541565,110.095673 
	C79.008087,113.384384 75.552155,112.433899 72.680649,112.954971 
	C68.153549,113.776451 63.680576,115.052528 58.594536,115.005836 
	C57.646389,111.144661 59.325024,109.766510 63.181526,109.940559 
	C68.803345,110.194298 74.444679,110.015884 80.541565,110.095673 
z"/>
<path fill="#5A5EE5" opacity="1.000000" stroke="none" 
	d="
M147.969681,93.427589 
	C150.747787,90.920525 153.994278,92.324944 157.025055,92.033104 
	C161.772537,91.575966 166.610352,92.745110 171.705688,91.128006 
	C172.734161,92.069817 173.371674,93.178871 174.062347,94.621902 
	C165.770920,94.971001 157.426346,94.986107 148.624207,95.002266 
	C148.109406,94.583961 148.052170,94.164619 147.969681,93.427589 
z"/>
<path fill="#8D6DE7" opacity="1.000000" stroke="none" 
	d="
M65.938484,154.361389 
	C73.896225,154.028015 81.906906,154.013458 90.375259,153.998322 
	C91.156021,154.779510 91.479095,155.561264 91.817337,156.670197 
	C90.418510,158.448700 88.547607,158.464554 86.766823,158.396439 
	C80.745750,158.166183 74.658035,159.346466 68.296745,157.313812 
	C66.907356,156.532944 66.066765,155.913559 65.938484,154.361389 
z"/>
<path fill="#955DE8" opacity="1.000000" stroke="none" 
	d="
M146.098938,158.362091 
	C151.463745,158.116257 156.725174,157.954163 161.969223,157.060318 
	C163.708313,156.763885 165.624832,156.695679 167.687561,157.866394 
	C168.079819,159.163544 167.516617,160.015228 166.460602,160.906158 
	C159.734421,161.027969 153.285553,161.005447 146.360794,160.970215 
	C145.931458,160.214157 145.977997,159.470840 146.098938,158.362091 
z"/>
<path fill="#5529E5" opacity="1.000000" stroke="none" 
	d="
M93.909225,80.654587 
	C89.394341,81.000839 84.954651,81.058296 80.517975,80.967880 
	C78.994003,80.936806 77.137611,81.672691 76.049278,79.285873 
	C76.834068,77.646194 77.611420,76.295914 79.627968,75.955124 
	C83.392616,79.204872 87.620979,76.199005 91.359482,77.302048 
	C92.234100,77.560112 93.311272,77.131721 94.702438,77.030411 
	C94.734962,78.130386 94.360283,79.219093 93.909225,80.654587 
z"/>
<path fill="#9066E7" opacity="1.000000" stroke="none" 
	d="
M67.939880,157.359619 
	C75.563065,157.027191 83.240143,157.012833 91.374863,156.997925 
	C91.879333,157.443909 91.926163,157.890442 91.903198,158.668259 
	C90.546394,160.609894 88.552246,160.693924 86.836678,160.886353 
	C81.444443,161.491196 76.033577,161.244507 70.270241,160.244232 
	C68.901550,159.534454 68.079521,158.900284 67.939880,157.359619 
z"/>
<path fill="#955DE8" opacity="1.000000" stroke="none" 
	d="
M70.005066,160.332794 
	C76.887291,159.042862 84.017906,160.600723 91.413055,158.999786 
	C92.211685,159.779480 92.589966,160.559433 92.901001,161.669495 
	C90.134308,164.097275 86.849091,164.103638 83.805367,163.846207 
	C80.161087,163.537994 76.525604,163.695602 72.532913,163.215363 
	C71.488647,162.203217 70.807999,161.413696 70.005066,160.332794 
z"/>
<path fill="#9B51E8" opacity="1.000000" stroke="none" 
	d="
M72.171989,163.306396 
	C75.679199,161.900101 79.146439,161.530029 82.776138,162.733627 
	C85.860931,163.756531 88.834969,161.361389 92.410477,161.999603 
	C93.211639,162.779846 93.589523,163.560074 93.900467,164.670227 
	C87.731316,165.277039 81.599701,164.420105 75.232498,165.789185 
	C74.023102,165.275528 73.098892,164.447784 72.171989,163.306396 
z"/>
<path fill="#5529E5" opacity="1.000000" stroke="none" 
	d="
M162.991425,79.669907 
	C157.310547,80.446335 151.428101,79.131630 145.279510,80.878479 
	C143.809586,80.174377 143.418259,78.928101 143.107758,77.336853 
	C148.502060,76.996666 153.835266,76.990654 159.643890,76.972488 
	C161.035629,77.768906 161.951981,78.577469 162.991425,79.669907 
z"/>
<path fill="#8D6DE7" opacity="1.000000" stroke="none" 
	d="
M138.146576,154.235413 
	C138.425476,153.681778 138.850952,153.364792 139.555023,153.023163 
	C139.880020,153.445053 139.926468,153.891571 139.902924,154.669312 
	C139.319656,154.824371 138.806412,154.648193 138.146576,154.235413 
z"/>
<path fill="#8D6DE7" opacity="1.000000" stroke="none" 
	d="
M98.127106,155.264160 
	C98.164223,154.997955 98.582321,154.999527 98.791389,155.000122 
	C98.998192,155.185287 98.995918,155.369827 98.976540,155.831482 
	C98.669617,155.915848 98.379807,155.723099 98.127106,155.264160 
z"/>
<path fill="#8D6DE7" opacity="1.000000" stroke="none" 
	d="
M101.293716,155.297333 
	C103.853943,152.989868 107.087425,154.085617 110.114571,154.074738 
	C116.210472,154.052780 122.328972,153.509796 128.705963,154.697388 
	C126.149033,157.013977 122.913895,155.913239 119.887245,155.923706 
	C113.790329,155.944778 107.670593,156.491333 101.293716,155.297333 
z"/>
<path fill="#8D6DE7" opacity="1.000000" stroke="none" 
	d="
M133.292984,154.976257 
	C133.181534,154.089432 133.130905,152.911804 134.829163,153.770813 
	C134.530594,154.319336 134.061188,154.638672 133.292984,154.976257 
z"/>
</svg>